<svg width="769" height="134" viewBox="0 0 769 134" fill="none" xmlns="http://www.w3.org/2000/svg">
<g filter="url(#filter0_d_13_30)">
<rect x="1.79032" y="31.0191" width="95.9677" height="97.1906" rx="10.0312" stroke="black" stroke-width="2.41935" stroke-dasharray="14.62 14.62"/>
<rect x="24.7742" y="2" width="103.226" height="104.575" rx="12.0968" fill="black"/>
<path d="M56.4091 82.3418C55.0528 82.3418 53.8889 81.8561 52.9175 80.8847C51.9461 79.9133 51.4604 78.7495 51.4604 77.3931C51.4604 76.0368 51.9461 74.873 52.9175 73.9016C53.8889 72.9302 55.0528 72.4445 56.4091 72.4445C57.7654 72.4445 58.9293 72.9302 59.9007 73.9016C60.8721 74.873 61.3578 76.0368 61.3578 77.3931C61.3578 78.2912 61.1287 79.116 60.6705 79.8675C60.2306 80.619 59.6349 81.2238 58.8834 81.682C58.1503 82.1219 57.3255 82.3418 56.4091 82.3418ZM83.778 57.2685L84.2179 45.1717L73.9907 51.66L71.3514 47.0412L82.1285 41.4327L71.3514 35.8242L73.9907 31.2055L84.2179 37.6937L83.778 25.597H89.0566L88.6168 37.6937L98.844 31.2055L101.483 35.8242L90.7062 41.4327L101.483 47.0412L98.844 51.66L88.6168 45.1717L89.0566 57.2685H83.778Z" fill="white"/>
</g>
<path d="M184.857 101V44.3752H197.612V53.997H198.276C199.455 50.7529 201.409 48.2215 204.137 46.4028C206.865 44.5596 210.122 43.6379 213.907 43.6379C217.741 43.6379 220.972 44.5719 223.602 46.4397C226.256 48.2829 228.124 50.802 229.206 53.997H229.795C231.049 50.8512 233.162 48.3444 236.136 46.4765C239.135 44.5841 242.686 43.6379 246.79 43.6379C252.001 43.6379 256.252 45.2846 259.546 48.5779C262.839 51.8711 264.485 56.6759 264.485 62.9921V101H251.103V65.0565C251.103 61.5421 250.17 58.9738 248.302 57.3517C246.434 55.7051 244.148 54.8818 241.445 54.8818C238.225 54.8818 235.706 55.8894 233.887 57.9047C232.093 59.8954 231.196 62.4883 231.196 65.6833V101H218.109V64.5036C218.109 61.5789 217.224 59.2442 215.455 57.4992C213.71 55.7543 211.424 54.8818 208.598 54.8818C206.681 54.8818 204.936 55.3733 203.363 56.3564C201.79 57.3149 200.537 58.6789 199.603 60.4484C198.669 62.1934 198.202 64.2332 198.202 66.568V101H184.857ZM278.024 101V44.3752H291.369V101H278.024ZM284.734 36.3387C282.62 36.3387 280.801 35.6382 279.278 34.2373C277.754 32.8119 276.992 31.1038 276.992 29.1131C276.992 27.0978 277.754 25.3897 279.278 23.9888C280.801 22.5634 282.62 21.8507 284.734 21.8507C286.872 21.8507 288.69 22.5634 290.19 23.9888C291.713 25.3897 292.475 27.0978 292.475 29.1131C292.475 31.1038 291.713 32.8119 290.19 34.2373C288.69 35.6382 286.872 36.3387 284.734 36.3387ZM329.792 102.106C324.139 102.106 319.285 100.865 315.23 98.3826C311.2 95.9003 308.091 92.4719 305.903 88.0972C303.741 83.698 302.659 78.6352 302.659 72.9088C302.659 67.1579 303.765 62.0828 305.977 57.6835C308.189 53.2597 311.31 49.819 315.341 47.3613C319.396 44.8791 324.188 43.6379 329.718 43.6379C334.314 43.6379 338.382 44.4858 341.921 46.1816C345.484 47.8528 348.323 50.2245 350.436 53.2966C352.55 56.3441 353.754 59.9077 354.049 63.9875H341.294C340.778 61.2594 339.549 58.9861 337.607 57.1674C335.69 55.3242 333.122 54.4025 329.903 54.4025C327.175 54.4025 324.778 55.1398 322.714 56.6144C320.649 58.0645 319.04 60.1535 317.885 62.8815C316.754 65.6095 316.189 68.8782 316.189 72.6876C316.189 76.5462 316.754 79.864 317.885 82.6412C319.015 85.3938 320.6 87.5197 322.64 89.0188C324.705 90.4935 327.125 91.2308 329.903 91.2308C331.869 91.2308 333.626 90.8621 335.174 90.1248C336.747 89.3629 338.062 88.2693 339.119 86.8438C340.176 85.4184 340.901 83.6857 341.294 81.6458H354.049C353.73 85.6518 352.55 89.2032 350.51 92.2998C348.47 95.3719 345.693 97.7804 342.179 99.5254C338.664 101.246 334.535 102.106 329.792 102.106ZM365.007 101V44.3752H377.947V53.8127H378.537C379.569 50.544 381.339 48.0249 383.845 46.2554C386.377 44.4613 389.265 43.5642 392.509 43.5642C393.246 43.5642 394.069 43.6011 394.979 43.6748C395.913 43.724 396.687 43.81 397.301 43.9329V56.2089C396.736 56.0123 395.839 55.8403 394.61 55.6928C393.406 55.5208 392.238 55.4348 391.108 55.4348C388.675 55.4348 386.487 55.9632 384.546 57.02C382.629 58.0522 381.117 59.4899 380.011 61.3332C378.905 63.1764 378.353 65.3023 378.353 67.7108V101H365.007ZM428.535 102.106C423.005 102.106 418.213 100.889 414.158 98.4563C410.103 96.0232 406.957 92.6193 404.72 88.2447C402.508 83.87 401.402 78.7581 401.402 72.9088C401.402 67.0595 402.508 61.9353 404.72 57.5361C406.957 53.1368 410.103 49.7207 414.158 47.2876C418.213 44.8545 423.005 43.6379 428.535 43.6379C434.065 43.6379 438.857 44.8545 442.912 47.2876C446.968 49.7207 450.101 53.1368 452.313 57.5361C454.55 61.9353 455.668 67.0595 455.668 72.9088C455.668 78.7581 454.55 83.87 452.313 88.2447C450.101 92.6193 446.968 96.0232 442.912 98.4563C438.857 100.889 434.065 102.106 428.535 102.106ZM428.609 91.4151C431.607 91.4151 434.114 90.5918 436.129 88.9451C438.145 87.2739 439.644 85.0374 440.627 82.2357C441.634 79.4339 442.138 76.3127 442.138 72.8719C442.138 69.4066 441.634 66.2731 440.627 63.4713C439.644 60.645 438.145 58.3963 436.129 56.725C434.114 55.0538 431.607 54.2182 428.609 54.2182C425.537 54.2182 422.981 55.0538 420.941 56.725C418.926 58.3963 417.414 60.645 416.406 63.4713C415.423 66.2731 414.932 69.4066 414.932 72.8719C414.932 76.3127 415.423 79.4339 416.406 82.2357C417.414 85.0374 418.926 87.2739 420.941 88.9451C422.981 90.5918 425.537 91.4151 428.609 91.4151ZM466.995 101V44.3752H479.934V53.8127H480.524C481.556 50.544 483.326 48.0249 485.833 46.2554C488.364 44.4613 491.252 43.5642 494.496 43.5642C495.233 43.5642 496.057 43.6011 496.966 43.6748C497.9 43.724 498.674 43.81 499.288 43.9329V56.2089C498.723 56.0123 497.826 55.8403 496.597 55.6928C495.393 55.5208 494.226 55.4348 493.095 55.4348C490.662 55.4348 488.475 55.9632 486.533 57.02C484.616 58.0522 483.105 59.4899 481.999 61.3332C480.893 63.1764 480.34 65.3023 480.34 67.7108V101H466.995ZM530.891 102.106C525.214 102.106 520.311 100.926 516.182 98.5669C512.078 96.183 508.919 92.816 506.707 88.4659C504.496 84.0912 503.39 78.9424 503.39 73.0194C503.39 67.1947 504.496 62.0828 506.707 57.6835C508.944 53.2597 512.065 49.819 516.071 47.3613C520.077 44.8791 524.784 43.6379 530.191 43.6379C533.68 43.6379 536.974 44.2032 540.07 45.3337C543.192 46.4397 545.944 48.1601 548.328 50.4948C550.737 52.8296 552.629 55.8034 554.005 59.4162C555.382 63.0044 556.07 67.2807 556.07 72.2452V76.3373H509.657V67.3422H543.278C543.253 64.7862 542.7 62.5129 541.619 60.5221C540.537 58.5069 539.026 56.9217 537.084 55.7665C535.167 54.6114 532.931 54.0339 530.375 54.0339C527.647 54.0339 525.251 54.6975 523.186 56.0246C521.122 57.3272 519.512 59.0475 518.357 61.1857C517.226 63.2993 516.649 65.6218 516.624 68.1532V76.0055C516.624 79.2988 517.226 82.1251 518.431 84.4844C519.635 86.8192 521.318 88.6133 523.481 89.8667C525.644 91.0956 528.175 91.71 531.075 91.71C533.017 91.71 534.774 91.4397 536.347 90.899C537.92 90.3337 539.284 89.5104 540.439 88.429C541.594 87.3476 542.467 86.0082 543.056 84.4107L555.517 85.8116C554.73 89.1049 553.231 91.9803 551.019 94.438C548.832 96.8711 546.03 98.7635 542.614 100.115C539.198 101.442 535.29 102.106 530.891 102.106ZM591.986 123.414C587.193 123.414 583.077 122.763 579.636 121.46C576.195 120.182 573.43 118.462 571.341 116.299C569.252 114.136 567.802 111.74 566.991 109.11L579.009 106.198C579.55 107.304 580.336 108.398 581.368 109.479C582.401 110.585 583.789 111.494 585.534 112.207C587.304 112.944 589.528 113.313 592.207 113.313C595.992 113.313 599.125 112.391 601.607 110.548C604.09 108.729 605.331 105.731 605.331 101.553V90.8252H604.667C603.979 92.2015 602.971 93.6147 601.644 95.0647C600.342 96.5147 598.609 97.7313 596.446 98.7144C594.308 99.6974 591.617 100.189 588.373 100.189C584.023 100.189 580.078 99.169 576.539 97.1292C573.025 95.0647 570.223 91.9926 568.134 87.9129C566.069 83.8086 565.037 78.672 565.037 72.5033C565.037 66.2854 566.069 61.0383 568.134 56.7619C570.223 52.461 573.037 49.2046 576.576 46.9927C580.115 44.7562 584.06 43.6379 588.41 43.6379C591.728 43.6379 594.456 44.2032 596.594 45.3337C598.757 46.4397 600.477 47.7791 601.755 49.352C603.033 50.9004 604.004 52.3627 604.667 53.739H605.405V44.3752H618.565V101.922C618.565 106.763 617.41 110.769 615.1 113.94C612.79 117.11 609.632 119.482 605.626 121.055C601.62 122.628 597.073 123.414 591.986 123.414ZM592.096 89.7193C594.923 89.7193 597.331 89.0311 599.322 87.6548C601.312 86.2785 602.824 84.3001 603.856 81.7196C604.888 79.139 605.405 76.0423 605.405 72.4296C605.405 68.8659 604.888 65.7447 603.856 63.0658C602.849 60.387 601.349 58.3102 599.359 56.8356C597.392 55.3365 594.972 54.5869 592.096 54.5869C589.122 54.5869 586.64 55.361 584.649 56.9094C582.659 58.4577 581.16 60.5836 580.152 63.287C579.144 65.9659 578.64 69.0134 578.64 72.4296C578.64 75.8949 579.144 78.9301 580.152 81.5352C581.184 84.1158 582.696 86.1311 584.686 87.5811C586.702 89.0066 589.172 89.7193 592.096 89.7193ZM657.311 102.106C651.633 102.106 646.73 100.926 642.601 98.5669C638.497 96.183 635.339 92.816 633.127 88.4659C630.915 84.0912 629.809 78.9424 629.809 73.0194C629.809 67.1947 630.915 62.0828 633.127 57.6835C635.364 53.2597 638.485 49.819 642.491 47.3613C646.497 44.8791 651.203 43.6379 656.61 43.6379C660.1 43.6379 663.393 44.2032 666.49 45.3337C669.611 46.4397 672.364 48.1601 674.748 50.4948C677.156 52.8296 679.049 55.8034 680.425 59.4162C681.801 63.0044 682.489 67.2807 682.489 72.2452V76.3373H636.076V67.3422H669.697C669.673 64.7862 669.12 62.5129 668.038 60.5221C666.957 58.5069 665.445 56.9217 663.504 55.7665C661.587 54.6114 659.35 54.0339 656.794 54.0339C654.066 54.0339 651.67 54.6975 649.606 56.0246C647.541 57.3272 645.932 59.0475 644.776 61.1857C643.646 63.2993 643.068 65.6218 643.044 68.1532V76.0055C643.044 79.2988 643.646 82.1251 644.85 84.4844C646.054 86.8192 647.738 88.6133 649.901 89.8667C652.063 91.0956 654.595 91.71 657.495 91.71C659.436 91.71 661.194 91.4397 662.767 90.899C664.339 90.3337 665.703 89.5104 666.859 88.429C668.014 87.3476 668.886 86.0082 669.476 84.4107L681.936 85.8116C681.15 89.1049 679.651 91.9803 677.439 94.438C675.252 96.8711 672.45 98.7635 669.034 100.115C665.617 101.442 661.71 102.106 657.311 102.106ZM703.475 44.3752L714.903 65.2777L726.516 44.3752H740.635L723.566 72.6876L740.93 101H726.884L714.903 80.6136L703.032 101H688.876L706.129 72.6876L689.319 44.3752H703.475Z" fill="black"/>
<defs>
<filter id="filter0_d_13_30" x="0.149532" y="2" width="131.73" height="131.73" filterUnits="userSpaceOnUse" color-interpolation-filters="sRGB">
<feFlood flood-opacity="0" result="BackgroundImageFix"/>
<feColorMatrix in="SourceAlpha" type="matrix" values="0 0 0 0 0 0 0 0 0 0 0 0 0 0 0 0 0 0 127 0" result="hardAlpha"/>
<feOffset dx="1.72414" dy="2.15517"/>
<feGaussianBlur stdDeviation="1.07759"/>
<feComposite in2="hardAlpha" operator="out"/>
<feColorMatrix type="matrix" values="0 0 0 0 0 0 0 0 0 0 0 0 0 0 0 0 0 0 0.25 0"/>
<feBlend mode="normal" in2="BackgroundImageFix" result="effect1_dropShadow_13_30"/>
<feBlend mode="normal" in="SourceGraphic" in2="effect1_dropShadow_13_30" result="shape"/>
</filter>
</defs>
</svg>
